<svg id="Layer_1" data-name="Layer 1" xmlns="http://www.w3.org/2000/svg" viewBox="0 0 500 500"><defs><style>.cls-1{fill:#fff;}</style></defs><title>logo_willingsvg</title><path class="cls-1" d="M200.28,302.11v32.51a4.84,4.84,0,0,1-4.86,4.85H166.06a10.87,10.87,0,0,1-10.91-10.91V302.11h5.68a.77.77,0,0,1,.82.75v26a4.37,4.37,0,0,0,4.41,4.41h9.71a2.35,2.35,0,0,1-1.27-2.09V302.11h5.68a.77.77,0,0,1,.82.75v29.59a.77.77,0,0,0,.75.82H193a.77.77,0,0,0,.75-.82V302.86a.77.77,0,0,1,.82-.75Z"/><path class="cls-1" d="M216,286.2v6.12h-5.68a.82.82,0,0,1-.82-.82v-6.13h5.68A.84.84,0,0,1,216,286.2Zm0,16.66v36.61h-5.68a.82.82,0,0,1-.82-.82V302.11h5.68A.77.77,0,0,1,216,302.86Z"/><path class="cls-1" d="M231.88,284.25v55.22H226.2a.82.82,0,0,1-.82-.82V283.43h5.68A.82.82,0,0,1,231.88,284.25Z"/><path class="cls-1" d="M247.72,284.25v55.22H242a.82.82,0,0,1-.82-.82V283.43h5.68A.82.82,0,0,1,247.72,284.25Z"/><path class="cls-1" d="M263.78,286.2v6.12H258.1a.83.83,0,0,1-.82-.82v-6.13H263A.83.83,0,0,1,263.78,286.2Zm0,16.66v36.61H258.1a.83.83,0,0,1-.82-.82V302.11H263A.77.77,0,0,1,263.78,302.86Z"/><path class="cls-1" d="M305,313v26.45h-5.67a.83.83,0,0,1-.83-.82v-26a4.41,4.41,0,0,0-4.4-4.41H280.52a.82.82,0,0,0-.82.82v29.59a.83.83,0,0,1-.82.82H273.2V307a4.84,4.84,0,0,1,4.85-4.86h16A10.87,10.87,0,0,1,305,313Z"/><path class="cls-1" d="M338.35,336.48a6.27,6.27,0,0,1-5.15,3h-9c-7,0-10.46-4.93-10.46-10.91V312.65c0-6,3.81-10.61,10.91-10.61h17.78a2.4,2.4,0,0,1,2.39,2.39V346.8a10.91,10.91,0,0,1-10.91,10.9H316.16v-5.37a.83.83,0,0,1,.82-.83h17a4.42,4.42,0,0,0,4.41-4.41Zm-18.08-7.62c0,2.39,1,4.41,4.11,4.41h10.31a4.29,4.29,0,0,0,3.66-3.81v-20.4a.82.82,0,0,0-.82-.82H324.68c-3.44,0-4.41,2-4.41,4.41Z"/><path class="cls-1" d="M289.76,247.3H281.1q-10-.53-16.37-6.76l-13.09-13.08a2,2,0,0,0-3.2,0l-13.17,13.08A25.29,25.29,0,0,1,219,247.3h-8.92a12,12,0,0,1-8.84-3.82,12.36,12.36,0,0,1-3.72-8.92v-79.7a12.7,12.7,0,0,1,12.56-12.56h21.49v10.39H210.06a1.94,1.94,0,0,0-1.47.65,2.13,2.13,0,0,0-.61,1.52v79.7a2.08,2.08,0,0,0,2.08,2.25H219a13.2,13.2,0,0,0,8.84-3.72L241,220a12.86,12.86,0,0,1,18.11,0L272,233.09q4.77,3.72,9.1,3.72h8.66a2.24,2.24,0,0,0,2.34-2.25v-79.7a2.22,2.22,0,0,0-2.34-2.17H268.45V142.3h21.31a12.38,12.38,0,0,1,8.93,3.72,11.94,11.94,0,0,1,3.81,8.84v79.7a12.74,12.74,0,0,1-12.74,12.74Z"/></svg>